<svg xmlns="http://www.w3.org/2000/svg" viewBox="0 0 900 620" role="img" aria-labelledby="title desc">
  <title id="title">Meatballs with crispy fries</title>
  <desc id="desc">Illustrated meatball food image for Campus Meatball Co.</desc>
  <defs>
    <linearGradient id="bg" x1="0" x2="1" y1="0" y2="1"><stop offset="0" stop-color="#fff2c8"/><stop offset="1" stop-color="#ffb36b"/></linearGradient>
    <radialGradient id="meat" cx="35%" cy="30%" r="70%"><stop offset="0" stop-color="#8b3a1f"/><stop offset="1" stop-color="#3f170f"/></radialGradient>
    <linearGradient id="sauce" x1="0" x2="1"><stop offset="0" stop-color="#e33a24"/><stop offset="1" stop-color="#9f1f14"/></linearGradient>
    <filter id="shadow" x="-20%" y="-20%" width="140%" height="140%"><feDropShadow dx="0" dy="18" stdDeviation="18" flood-color="#5a240f" flood-opacity="0.28"/></filter>
  </defs>
  <rect width="900" height="620" fill="url(#bg)"/>
  <circle cx="120" cy="90" r="90" fill="#ffd166" opacity=".48"/>
  <circle cx="780" cy="90" r="110" fill="#e33a24" opacity=".16"/>
  <ellipse cx="450" cy="455" rx="330" ry="92" fill="#5a240f" opacity=".16"/>
  <g filter="url(#shadow)"><g stroke="#f4b740" stroke-width="34" stroke-linecap="round"><path d="M235 215l80 230"/><path d="M310 190l45 260"/><path d="M390 210l-18 245"/><path d="M465 195l-35 255"/><path d="M535 218l-63 230"/></g><ellipse cx="525" cy="410" rx="245" ry="92" fill="#fff6e3"/><ellipse cx="525" cy="412" rx="205" ry="55" fill="url(#sauce)"/><circle cx="438" cy="360" r="68" fill="url(#meat)"/><circle cx="540" cy="342" r="74" fill="url(#meat)"/><circle cx="635" cy="383" r="64" fill="url(#meat)"/></g>
</svg>